<svg xmlns="http://www.w3.org/2000/svg" viewBox="0 0 64 64" fill="none" stroke="currentColor" stroke-width="2">
  <path d="M32 2L2 16l30 14 30-14L32 2z" fill="#f0c419"/>
  <path d="M32 30L2 16v32l30 14 30-14V16L32 30z" fill="#f29c1f"/>
  <path d="M32 30L2 16v32l30 14V30z" fill="#f0c419"/>
  <path d="M32 30L62 16v32L32 62V30z" fill="#f29c1f"/>
  <path d="M32 30L2 16v32l30 14V30z" stroke="#000" stroke-width="2"/>
  <path d="M32 30L62 16v32L32 62V30z" stroke="#000" stroke-width="2"/>
  <path d="M32 2L2 16l30 14 30-14L32 2z" stroke="#000" stroke-width="2"/>
  <path d="M32 30L2 16v32l30 14 30-14V16L32 30z" stroke="#000" stroke-width="2"/>
  <path d="M32 30L2 16v32l30 14V30z" stroke="#000" stroke-width="2"/>
  <path d="M32 30L62 16v32L32 62V30z" stroke="#000" stroke-width="2"/>
</svg>